<svg id="Icons" height="512" viewBox="0 0 74 74" width="512" xmlns="http://www.w3.org/2000/svg"><path d="m62 45.94a1 1 0 0 1 -1-1v-2.94a1 1 0 0 1 2 0v2.94a1 1 0 0 1 -1 1z"/><path d="m62 72h-50a1 1 0 0 1 -1-1v-68a1 1 0 0 1 1-1h36a1 1 0 0 1 .707.293l14 14a1 1 0 0 1 .293.707v17.99a1 1 0 1 1 -2 0v-17.576l-13.414-13.414h-34.586v66h48v-8.12a1 1 0 1 1 2 0v9.12a1 1 0 0 1 -1 1z"/><path d="m62 55.88a1 1 0 0 1 -1-1v-2.94a1 1 0 0 1 2 0v2.94a1 1 0 0 1 -1 1z"/><path d="m62 18h-14a1 1 0 0 1 -1-1v-14a1 1 0 0 1 2 0v13h13a1 1 0 0 1 0 2z"/><path d="m55 37h-36a1 1 0 0 1 0-2h36a1 1 0 0 1 0 2z"/><path d="m55 27h-36a1 1 0 0 1 0-2h36a1 1 0 0 1 0 2z"/><path d="m41 17h-22a1 1 0 0 1 0-2h22a1 1 0 0 1 0 2z"/><path d="m48.282 64h-22.564a1 1 0 0 1 -1-1v-4.615a1 1 0 0 1 2 0v3.615h20.564v-3.615a1 1 0 0 1 2 0v4.615a1 1 0 0 1 -1 1z"/><path d="m37 58.964a1 1 0 0 1 -1-1v-14.964a1 1 0 0 1 2 0v14.964a1 1 0 0 1 -1 1z"/><path d="m37 58.964a1 1 0 0 1 -.707-.293l-4.671-4.671a1 1 0 0 1 1.414-1.415l3.964 3.965 3.964-3.965a1 1 0 0 1 1.414 1.415l-4.671 4.671a1 1 0 0 1 -.707.293z"/></svg>