<svg height="512" viewBox="0 0 74 74" width="512" xmlns="http://www.w3.org/2000/svg"><g id="color_line" data-name="color line"><path d="m63.475 16.148v54.852h-52.95v-68h39.802z" fill="#eeefee"/><path d="m63.48 16.15v54.85h-52.96v-3.42h49.96v-54.43z" fill="#e1e6e9"/><circle cx="37" cy="45.401" fill="#27ccbc" r="13.648"/><path d="m46.49 55.2a13.642 13.642 0 0 0 -20.98-17.16 13.645 13.645 0 1 1 20.98 17.16z" fill="#21b3a9"/><path d="m42.137 46.644-5.133 7.256-5.141-7.256h2.897v-9.742h4.48v9.742z" fill="#eeefee"/><g fill="#323c6b"><path d="m37 54.4a.5.5 0 0 1 -.408-.211l-5.141-7.256a.5.5 0 0 1 .408-.789h2.4v-9.244a.5.5 0 0 1 .5-.5h4.48a.5.5 0 0 1 .5.5v9.242h2.4a.5.5 0 0 1 .408.789l-5.133 7.256a.5.5 0 0 1 -.414.213zm-4.17-7.256 4.17 5.891 4.167-5.891h-1.927a.5.5 0 0 1 -.5-.5v-9.244h-3.48v9.242a.5.5 0 0 1 -.5.5z"/><path d="m28.5 10.074h-12.015a.5.5 0 0 1 0-1h12.015a.5.5 0 0 1 0 1z"/><path d="m24.5 16.127h-8.01a.5.5 0 0 1 0-1h8.01a.5.5 0 0 1 0 1z"/><path d="m7.525 18.833a.5.5 0 0 1 -.5-.5v-7.666a.5.5 0 0 1 1 0v7.667a.5.5 0 0 1 -.5.499z"/><path d="m7.525 8.5a.5.5 0 0 1 -.5-.5v-.917a.5.5 0 0 1 1 0v.917a.5.5 0 0 1 -.5.5z"/><path d="m66.475 55.833a.5.5 0 0 1 -.5-.5v-1a.5.5 0 0 1 1 0v1a.5.5 0 0 1 -.5.5z"/><path d="m66.475 67a.5.5 0 0 1 -.5-.5v-8.25a.5.5 0 0 1 1 0v8.25a.5.5 0 0 1 -.5.5z"/></g><path d="m50.327 16.148v-13.148l13.148 13.148z" fill="#e1e6e9"/><path d="m63.475 16.648h-13.148a.5.5 0 0 1 -.5-.5v-13.148a.5.5 0 0 1 .854-.354l13.147 13.148a.5.5 0 0 1 -.354.854zm-12.647-1h11.44l-11.441-11.441z" fill="#323c6b"/><path d="m63.475 71.5h-52.95a.5.5 0 0 1 -.5-.5v-68a.5.5 0 0 1 .5-.5h39.8a.5.5 0 0 1 .354.146l13.149 13.148a.5.5 0 0 1 .146.354v54.852a.5.5 0 0 1 -.499.5zm-52.449-1h51.949v-54.145l-12.855-12.855h-39.095z" fill="#323c6b"/><path d="m37 59.549a14.148 14.148 0 1 1 14.148-14.149 14.164 14.164 0 0 1 -14.148 14.149zm0-27.3a13.148 13.148 0 1 0 13.148 13.151 13.163 13.163 0 0 0 -13.148-13.147z" fill="#323c6b"/></g></svg>