<svg id="Filled" height="512" viewBox="0 0 512 512" width="512" xmlns="http://www.w3.org/2000/svg"><rect fill="#f7cc38" height="336" rx="32" width="416" x="72" y="152"/><path d="m440 104v304a32 32 0 0 1 -32 32h-256a32 32 0 0 1 -32-32v-352a32 32 0 0 1 32-32h208z" fill="#e9eef2"/><path d="m424 488h-368a32 32 0 0 1 -32-32v-320a32 32 0 0 1 32-32h96a32 32 0 0 1 32 32v64h176a32 32 0 0 1 32 32v224a32 32 0 0 0 32 32" fill="#fbe36a"/><path d="m440 104h-48a32 32 0 0 1 -32-32v-48z" fill="#c3c6c7"/><path d="m184.879 423.995 55.293-64.611-31.998.351-1.055-95.994-47.997.528 1.055 95.994-31.998.351z" fill="#f79539"/><path d="m56 496h400a40.045 40.045 0 0 0 40-40v-272a40.045 40.045 0 0 0 -40-40h-8v-40c0-.092-.01-.182-.014-.274s-.007-.174-.012-.261a7.988 7.988 0 0 0 -.4-2.026c-.027-.081-.056-.161-.086-.241a8.069 8.069 0 0 0 -.4-.914c-.007-.013-.012-.027-.019-.041a7.96 7.96 0 0 0 -.556-.882c-.05-.071-.1-.14-.154-.209a7.947 7.947 0 0 0 -.7-.809l-80-80a8.039 8.039 0 0 0 -.806-.694c-.071-.054-.142-.107-.214-.158a8.2 8.2 0 0 0 -.879-.553c-.015-.008-.032-.014-.048-.022a7.891 7.891 0 0 0 -.908-.4c-.08-.03-.159-.059-.24-.086a7.992 7.992 0 0 0 -2.03-.4c-.085 0-.17-.009-.256-.012s-.185-.018-.278-.018h-208a40.045 40.045 0 0 0 -40 40v40h-56a40.045 40.045 0 0 0 -40 40v320a40.045 40.045 0 0 0 40 40zm400-336a24.028 24.028 0 0 1 24 24v272a24.028 24.028 0 0 1 -24 24h-32a24.028 24.028 0 0 1 -24-24v-8h8a40.045 40.045 0 0 0 40-40v-248zm-35.313-64h-28.687a24.027 24.027 0 0 1 -24-24v-28.687zm-292.687-40a24.027 24.027 0 0 1 24-24h200v40a40.045 40.045 0 0 0 40 40h40v296a24.027 24.027 0 0 1 -24 24h-8v-200a40.045 40.045 0 0 0 -40-40h-168v-56a40.045 40.045 0 0 0 -40-40h-24zm-96 80a24.028 24.028 0 0 1 24-24h96a24.028 24.028 0 0 1 24 24v64a8 8 0 0 0 8 8h176a24.028 24.028 0 0 1 24 24v224a39.792 39.792 0 0 0 8.019 24h-336.019a24.028 24.028 0 0 1 -24-24z"/><path d="m272 152a8 8 0 0 0 8 8h112a8 8 0 0 0 0-16h-112a8 8 0 0 0 -8 8z"/><path d="m224 112h56a8 8 0 0 0 0-16h-56a8 8 0 0 0 0 16z"/><path d="m248 144h-16a8 8 0 0 0 0 16h16a8 8 0 0 0 0-16z"/><path d="m178.917 429.329a8 8 0 0 0 5.962 2.671h.088a8.006 8.006 0 0 0 5.99-2.8l55.294-64.612a8 8 0 0 0 -6.077-13.2h-.089l-24 .264-.967-87.995a8 8 0 0 0 -8-7.912h-.09l-48 .527a8 8 0 0 0 -7.911 8.087l.967 88-24 .264a8 8 0 0 0 -5.874 13.333zm-18.651-61.067a8 8 0 0 0 7.911-8.087l-.967-87.995 32-.351.967 87.994a7.967 7.967 0 0 0 8.088 7.912l14.369-.158-37.887 44.27-38.847-43.427z"/></svg>